<?xml version="1.0" standalone="no"?>
<!DOCTYPE svg PUBLIC "-//W3C//DTD SVG 20010904//EN"
 "http://www.w3.org/TR/2001/REC-SVG-20010904/DTD/svg10.dtd">
<svg version="1.0" xmlns="http://www.w3.org/2000/svg"
 width="1147.000000pt" height="1147.000000pt" viewBox="0 0 1147.000000 1147.000000"
 preserveAspectRatio="xMidYMid meet">
<metadata>
Created by potrace 1.14, written by Peter Selinger 2001-2017
</metadata>
<g transform="translate(0.000000,1147.000000) scale(0.100000,-0.100000)"
fill="#000000" stroke="none">
<path d="M4440 11402 c0 -7 -5 -10 -10 -7 -6 4 -17 1 -25 -5 -12 -10 -15 -10
-15 -1 0 8 -6 7 -16 -3 -8 -9 -20 -14 -25 -11 -5 4 -9 0 -9 -7 0 -9 -3 -9 -10
2 -7 12 -10 12 -10 1 0 -7 -6 -11 -15 -7 -8 3 -14 1 -12 -3 1 -5 -2 -9 -7 -9
-5 0 -12 -5 -15 -10 -3 -6 -15 -12 -26 -14 -11 -1 -23 -7 -27 -13 -5 -6 -8 -6
-8 2 0 8 -9 9 -29 3 -21 -6 -31 -5 -35 3 -2 7 -5 7 -5 2 -1 -13 -91 -6 -91 7
0 6 -7 7 -16 4 -8 -3 -24 -1 -35 4 -14 8 -19 7 -19 -2 0 -8 -3 -9 -8 -3 -9 13
-82 13 -74 1 3 -5 -2 -7 -11 -3 -9 3 -18 3 -21 -1 -2 -4 -19 -9 -37 -10 -18
-2 -36 -8 -40 -13 -4 -8 -8 -7 -12 2 -4 10 -6 10 -6 2 -1 -7 -11 -13 -24 -13
-13 0 -29 -6 -36 -12 -11 -10 -14 -10 -18 0 -3 6 -9 12 -15 12 -6 0 -8 -6 -5
-13 3 -8 -3 -13 -17 -14 -47 -1 -57 -3 -51 -13 4 -7 -5 -9 -25 -5 -17 3 -29 2
-26 -3 3 -5 -13 -15 -34 -22 -22 -7 -40 -18 -40 -24 0 -6 -5 -4 -10 4 -7 11
-10 11 -10 2 0 -7 -4 -10 -10 -7 -5 3 -10 1 -10 -5 0 -7 -7 -9 -16 -6 -12 5
-15 2 -10 -11 6 -14 5 -15 -5 -6 -10 10 -15 9 -23 -3 -6 -8 -21 -16 -33 -17
-13 0 -25 -7 -28 -15 -3 -7 -9 -10 -15 -7 -5 3 -10 1 -10 -5 0 -6 -4 -9 -9 -5
-6 3 -14 -3 -20 -12 -7 -13 -10 -14 -11 -4 0 10 -7 8 -23 -7 -13 -12 -27 -19
-30 -15 -4 3 -7 1 -7 -5 0 -7 -3 -11 -7 -11 -20 3 -34 -2 -28 -10 3 -5 1 -12
-5 -16 -5 -3 -10 0 -10 7 0 9 -3 9 -10 -2 -5 -8 -15 -15 -22 -15 -7 -1 -12 -7
-10 -14 1 -7 -2 -10 -7 -7 -5 4 -16 0 -24 -8 -11 -11 -17 -12 -27 -3 -10 9
-11 9 -6 0 5 -8 1 -13 -9 -13 -10 0 -13 -5 -9 -12 5 -8 2 -9 -9 -5 -10 3 -17
2 -17 -3 0 -6 -7 -10 -16 -10 -9 0 -12 -5 -8 -12 5 -7 3 -8 -5 -4 -7 5 -19 0
-27 -10 -9 -11 -12 -13 -9 -6 4 8 -15 -1 -43 -20 -28 -18 -48 -37 -45 -42 4
-5 -3 -7 -15 -4 -12 3 -21 3 -20 -1 2 -19 -3 -31 -14 -29 -7 2 -12 -2 -13 -7
0 -6 -11 -22 -24 -35 -13 -14 -20 -18 -16 -10 4 8 -1 6 -12 -5 -11 -11 -19
-23 -16 -27 4 -7 -11 -12 -28 -10 -4 1 -4 -8 -1 -20 3 -12 1 -19 -4 -15 -5 3
-20 -10 -33 -29 -13 -19 -28 -34 -33 -34 -5 0 -6 -4 -3 -10 3 -5 1 -10 -5 -10
-6 0 -8 -4 -5 -10 3 -5 1 -10 -5 -10 -6 0 -16 -12 -23 -27 -6 -16 -15 -31 -20
-34 -4 -3 -9 -16 -10 -27 -1 -12 -5 -22 -10 -22 -4 0 -6 -4 -3 -9 3 -5 -1 -14
-9 -21 -8 -7 -12 -16 -9 -21 3 -5 0 -9 -6 -9 -6 0 -9 -4 -5 -9 3 -5 0 -13 -6
-16 -5 -4 -8 -13 -5 -21 3 -8 1 -14 -4 -14 -6 0 -10 -7 -10 -15 0 -8 -4 -15
-9 -15 -6 0 -8 -9 -6 -21 3 -14 0 -19 -9 -16 -9 4 -12 -4 -11 -24 1 -16 -2
-29 -7 -29 -4 0 -8 -9 -8 -21 0 -11 -4 -17 -10 -14 -5 3 -10 1 -10 -4 0 -6 5
-11 11 -11 8 0 8 -4 -1 -15 -6 -8 -9 -19 -5 -25 3 -5 1 -10 -5 -10 -6 0 -8 -4
-5 -10 3 -5 2 -10 -4 -10 -6 0 -8 -7 -5 -15 4 -8 1 -15 -4 -15 -6 0 -9 -9 -7
-20 2 -11 0 -20 -6 -20 -5 0 -9 -8 -9 -19 0 -24 -25 -73 -33 -64 -4 3 -7 1 -7
-5 0 -7 5 -12 12 -12 9 0 9 -3 0 -12 -7 -7 -12 -20 -12 -30 0 -10 -4 -18 -9
-18 -8 0 -22 -32 -25 -56 -1 -6 -8 -20 -16 -30 -9 -11 -10 -15 -2 -10 8 5 6
-5 -5 -27 -10 -19 -22 -32 -28 -29 -5 3 -7 2 -3 -2 3 -4 0 -22 -7 -41 -8 -18
-11 -36 -7 -40 4 -5 1 -5 -5 -1 -8 4 -13 1 -14 -8 -3 -31 -18 -68 -33 -78 -7
-6 -6 -11 4 -18 13 -8 12 -10 -4 -10 -15 0 -16 -3 -6 -15 7 -9 8 -15 2 -15 -5
0 -13 -7 -16 -16 -4 -10 -2 -13 7 -8 8 5 8 2 -2 -9 -7 -9 -11 -24 -7 -32 3 -8
0 -15 -7 -15 -8 0 -6 -4 3 -10 12 -7 12 -10 1 -10 -8 0 -11 -6 -7 -16 3 -8 2
-12 -4 -9 -6 3 -10 1 -10 -4 0 -6 6 -11 13 -11 8 0 7 -4 -3 -10 -13 -9 -13
-10 0 -10 13 0 13 -1 0 -10 -13 -9 -13 -10 0 -10 10 0 11 -3 4 -8 -6 -4 -10
-19 -10 -34 1 -16 -3 -28 -8 -28 -5 0 -6 -3 -3 -7 4 -3 2 -12 -4 -20 -9 -10
-8 -13 1 -13 10 0 10 -3 0 -15 -10 -12 -10 -15 1 -15 12 0 12 -2 0 -9 -11 -7
-11 -9 0 -14 8 -3 9 -6 2 -6 -6 -1 -9 -10 -6 -21 3 -12 0 -20 -7 -20 -10 0
-10 -3 0 -15 9 -11 9 -15 1 -15 -9 0 -9 -5 -1 -20 8 -14 8 -20 0 -20 -7 0 -8
-6 -1 -17 6 -12 5 -21 -7 -31 -10 -7 -11 -11 -4 -7 6 3 12 1 12 -4 0 -6 -6
-11 -12 -11 -9 0 -8 -4 2 -10 13 -9 13 -10 0 -10 -13 0 -13 -1 0 -10 13 -9 13
-10 0 -10 -12 0 -13 -2 -1 -9 11 -7 11 -9 0 -14 -12 -5 -12 -6 0 -6 11 -1 11
-4 1 -16 -10 -12 -10 -15 0 -15 10 0 10 -3 0 -15 -7 -8 -10 -26 -8 -40 3 -14
1 -25 -6 -25 -6 0 -4 -5 4 -10 11 -7 11 -10 2 -10 -9 0 -10 -5 -4 -17 5 -10 7
-24 4 -32 -2 -7 2 -17 9 -22 12 -8 12 -11 -1 -20 -11 -7 -12 -12 -3 -15 7 -3
9 -12 6 -20 -3 -7 -9 -12 -13 -9 -5 3 -5 -8 0 -25 6 -20 5 -30 -2 -30 -5 0 -8
-7 -4 -15 3 -8 1 -15 -4 -15 -6 0 -10 -8 -10 -18 0 -10 -7 -27 -15 -39 -10
-15 -12 -24 -5 -28 7 -5 5 -12 -7 -21 -14 -11 -15 -13 -3 -14 12 0 11 -3 -3
-11 -9 -6 -15 -15 -11 -20 3 -5 1 -15 -4 -22 -5 -7 -8 -22 -7 -34 1 -12 -5
-25 -13 -28 -11 -4 -11 -9 -3 -18 8 -10 7 -17 -1 -25 -9 -9 -9 -12 2 -12 13 0
13 -2 0 -10 -12 -8 -12 -10 -1 -10 11 0 11 -3 0 -17 -12 -14 -12 -16 0 -8 10
6 12 4 6 -6 -5 -7 -10 -22 -11 -34 -4 -37 -13 -77 -18 -82 -3 -3 -1 -16 4 -28
6 -16 5 -25 -3 -29 -9 -5 -9 -7 0 -12 7 -3 9 -12 6 -20 -3 -7 -9 -11 -14 -8
-5 3 -5 -6 1 -20 7 -19 6 -26 -3 -26 -8 0 -7 -4 3 -10 11 -7 11 -10 2 -10 -10
0 -10 -5 -1 -22 8 -15 8 -23 1 -26 -5 -1 -8 -12 -5 -22 3 -13 0 -20 -8 -20
-11 0 -11 -2 1 -10 8 -5 10 -10 3 -10 -13 0 -12 -18 1 -39 7 -10 6 -12 -4 -6
-8 5 -11 3 -8 -6 3 -8 -2 -20 -11 -26 -14 -11 -14 -14 -1 -23 9 -5 10 -10 3
-10 -6 0 -10 -11 -8 -25 1 -14 -2 -25 -8 -25 -6 0 -7 -3 -4 -7 4 -3 2 -12 -4
-20 -9 -10 -8 -13 1 -13 9 0 9 -4 -1 -17 -12 -15 -12 -16 1 -8 9 5 8 0 -4 -13
-11 -12 -14 -22 -8 -22 5 0 8 -9 5 -20 -3 -11 -10 -17 -17 -13 -7 4 -7 1 1 -7
8 -9 9 -19 2 -32 -5 -10 -7 -23 -4 -28 3 -6 1 -10 -5 -10 -7 0 -8 -5 -1 -17 7
-13 5 -21 -7 -30 -11 -7 -12 -12 -5 -13 9 0 10 -7 3 -25 -6 -16 -6 -25 0 -25
5 0 7 -7 4 -15 -4 -8 -10 -12 -15 -9 -5 3 -9 0 -9 -5 0 -6 4 -11 9 -11 5 0 7
-9 4 -20 -3 -11 -9 -17 -14 -14 -5 3 -5 -6 1 -20 7 -18 6 -26 -1 -26 -7 0 -6
-6 2 -17 12 -14 12 -16 0 -8 -11 6 -13 2 -9 -19 3 -14 2 -26 -3 -26 -4 0 -6
-9 -4 -20 2 -11 -1 -20 -7 -20 -7 0 -6 -6 2 -15 10 -12 10 -15 0 -15 -9 0 -9
-4 1 -17 12 -14 12 -16 0 -8 -11 6 -13 1 -9 -24 3 -18 0 -31 -6 -31 -6 0 -4
-5 4 -10 9 -6 11 -10 3 -10 -7 0 -10 -7 -7 -15 4 -8 3 -23 -1 -32 -11 -25 -12
-44 -3 -71 6 -16 3 -24 -7 -28 -11 -5 -12 -11 -4 -25 7 -14 6 -19 -3 -19 -9 0
-9 -3 2 -10 14 -9 7 -15 -14 -11 -5 1 -4 -5 4 -13 7 -9 8 -16 3 -16 -5 0 -9
-9 -9 -20 0 -11 4 -20 8 -20 4 0 5 -7 2 -15 -4 -8 -10 -12 -15 -9 -5 3 -9 1
-9 -5 0 -5 6 -12 13 -14 9 -4 8 -8 -3 -16 -13 -10 -13 -11 0 -11 9 0 11 -3 4
-8 -17 -11 -25 -42 -11 -42 8 0 6 -4 -3 -10 -13 -9 -13 -10 0 -10 13 0 13 -1
0 -10 -13 -9 -13 -10 0 -10 13 0 13 -1 0 -10 -13 -9 -13 -10 0 -10 12 0 13 -2
1 -9 -11 -7 -11 -9 0 -14 12 -4 11 -7 -1 -16 -13 -10 -13 -12 0 -21 11 -7 12
-12 3 -21 -6 -6 -9 -18 -6 -25 3 -8 -1 -14 -8 -14 -11 0 -11 -3 1 -10 8 -5 10
-10 3 -10 -12 0 -7 -37 9 -57 5 -7 5 -14 -1 -17 -7 -4 -7 -15 -1 -31 6 -16 5
-25 -3 -29 -8 -3 -8 -5 2 -5 11 -1 11 -4 0 -17 -8 -9 -9 -18 -3 -22 5 -4 9
-14 9 -22 -1 -8 2 -25 7 -37 5 -15 4 -23 -4 -23 -7 0 -3 -7 8 -15 19 -15 19
-15 -1 -8 l-20 6 20 -23 c12 -14 14 -20 5 -15 -11 6 -10 3 2 -12 20 -22 24
-38 7 -27 -8 4 -7 0 1 -15 6 -12 15 -19 20 -16 4 3 6 -4 3 -15 -3 -13 0 -20 8
-20 11 0 11 -2 -1 -10 -10 -6 -11 -10 -2 -10 6 0 12 -7 12 -16 0 -9 5 -12 12
-8 6 4 8 3 5 -4 -10 -15 3 -43 16 -35 6 4 8 0 4 -10 -4 -10 -2 -16 6 -14 7 1
11 -6 9 -17 -3 -13 1 -17 12 -13 9 4 15 2 13 -3 -1 -5 7 -16 18 -25 11 -9 13
-13 5 -9 -13 7 -13 5 -1 -9 7 -9 18 -17 23 -17 14 0 38 -27 31 -34 -6 -5 29
-10 50 -7 4 0 7 -4 7 -9 0 -6 5 -10 11 -10 7 0 20 -10 30 -22 11 -11 19 -18
19 -13 0 4 8 1 17 -6 14 -12 16 -12 9 1 -4 8 1 6 11 -5 12 -13 28 -19 46 -17
17 2 27 -1 27 -9 0 -10 3 -10 12 -1 16 16 28 15 28 -2 0 -8 5 -18 12 -22 7 -4
8 -3 4 4 -9 15 20 11 50 -6 12 -6 24 -8 28 -5 3 3 6 1 6 -7 0 -10 3 -10 14 -1
10 8 16 9 21 1 3 -5 15 -10 26 -10 14 0 18 -4 13 -12 -5 -9 -2 -9 9 1 14 11
17 11 17 0 0 -11 2 -11 10 1 9 13 10 13 10 0 0 -12 2 -12 9 -1 6 10 10 10 16
1 5 -8 10 -9 14 -2 3 6 11 0 18 -14 6 -13 7 -22 2 -18 -5 3 -9 0 -9 -5 0 -6 5
-11 11 -11 6 0 3 -7 -5 -16 -18 -17 -21 -28 -7 -19 5 3 3 -8 -5 -25 -9 -16
-19 -30 -24 -30 -5 0 -6 -7 -3 -17 4 -10 2 -14 -4 -10 -10 6 -27 -27 -24 -46
1 -5 -3 -6 -9 -2 -5 3 -10 1 -10 -5 0 -6 -4 -9 -9 -6 -5 3 -14 -8 -21 -24 -7
-16 -17 -27 -23 -23 -6 4 -8 0 -4 -10 3 -9 3 -16 -1 -15 -4 1 -17 -3 -29 -10
-13 -7 -23 -9 -23 -5 0 4 -5 1 -10 -7 -6 -9 -10 -11 -10 -3 0 7 -7 10 -15 7
-8 -4 -12 -10 -9 -15 3 -5 1 -9 -5 -9 -5 0 -12 6 -14 13 -4 9 -6 9 -6 -1 -1
-7 -5 -11 -10 -8 -5 3 -8 -1 -7 -9 0 -7 -3 -14 -9 -15 -10 -1 -29 -39 -27 -52
1 -5 -3 -8 -9 -8 -5 0 -7 -4 -4 -10 3 -5 1 -10 -6 -10 -8 0 -8 -5 2 -18 7 -9
9 -14 5 -10 -9 8 -43 -31 -39 -44 2 -4 -6 -10 -17 -13 -11 -4 -18 -11 -15 -16
4 -5 -3 -9 -14 -9 -13 0 -21 -7 -21 -17 0 -9 -3 -14 -6 -10 -8 8 -33 -16 -27
-25 2 -4 -3 -5 -11 -2 -9 3 -16 1 -16 -5 0 -6 -6 -10 -13 -8 -6 1 -11 -4 -9
-11 1 -8 -2 -11 -9 -6 -7 4 -20 -3 -31 -17 -11 -13 -17 -17 -13 -9 4 10 2 9
-8 -2 -8 -10 -17 -15 -20 -11 -4 3 -7 -1 -7 -10 0 -9 -4 -17 -10 -17 -19 0
-25 -3 -36 -18 -6 -8 -16 -12 -22 -8 -7 4 -12 2 -12 -5 0 -9 -3 -9 -14 0 -11
10 -17 8 -25 -6 -6 -11 -11 -13 -11 -5 0 7 -4 10 -10 7 -5 -3 -10 0 -10 7 0 9
-3 9 -10 -2 -5 -8 -10 -10 -10 -4 0 13 -59 6 -79 -10 -11 -8 -13 -8 -8 0 4 7
0 14 -7 17 -8 3 -17 1 -20 -6 -3 -9 -5 -9 -5 0 -1 8 -10 9 -31 3 -21 -6 -30
-5 -30 3 0 8 -3 8 -8 2 -4 -6 -17 -10 -30 -9 -16 1 -21 -3 -18 -13 4 -9 2 -11
-6 -7 -6 4 -17 -2 -25 -12 -8 -10 -17 -19 -21 -18 -19 2 -41 -9 -35 -19 4 -6
-2 -8 -15 -5 -13 4 -20 2 -19 -6 1 -6 -6 -10 -15 -10 -10 1 -16 -2 -13 -6 3
-5 -8 -17 -25 -26 -16 -10 -30 -22 -30 -27 0 -5 -9 -7 -20 -4 -11 3 -18 2 -15
-3 3 -4 -2 -10 -9 -13 -8 -3 -17 -1 -20 6 -3 9 -9 7 -18 -4 -7 -9 -18 -14 -25
-12 -6 2 -14 -1 -18 -6 -3 -6 -19 -11 -35 -11 -16 0 -36 -7 -44 -16 -9 -8 -16
-11 -16 -5 0 6 -5 11 -11 11 -5 0 -7 -4 -4 -10 6 -9 -10 -14 -42 -13 -7 1 -13
-7 -14 -16 0 -10 -2 -11 -6 -3 -2 6 -9 12 -14 12 -6 0 -8 -3 -6 -7 3 -5 -1
-14 -9 -21 -8 -7 -14 -10 -14 -7 0 3 -6 0 -14 -7 -8 -7 -12 -16 -9 -20 2 -5 0
-8 -4 -8 -5 0 -17 -14 -27 -30 -9 -17 -21 -28 -27 -25 -5 4 -6 -2 -2 -12 3
-10 3 -15 -2 -11 -4 4 -15 2 -23 -5 -13 -10 -15 -9 -8 3 6 11 4 11 -6 -1 -7
-9 -21 -15 -30 -13 -10 1 -22 -5 -28 -14 -7 -13 -9 -14 -10 -3 0 11 -4 9 -15
-5 -11 -14 -15 -16 -15 -4 -1 13 -2 13 -13 -1 -7 -9 -20 -15 -29 -13 -10 1
-18 -2 -18 -7 0 -6 -5 -7 -10 -4 -5 3 -10 1 -10 -5 0 -6 -4 -8 -10 -5 -5 3
-10 1 -10 -5 0 -6 -4 -8 -10 -5 -5 3 -10 2 -10 -3 0 -6 -7 -13 -16 -16 -10 -4
-13 -2 -8 7 6 9 5 9 -8 0 -8 -7 -18 -10 -21 -6 -4 3 -7 2 -7 -4 0 -18 -31 -24
-48 -11 -9 7 -13 8 -10 3 4 -6 2 -17 -3 -25 -8 -13 -10 -13 -19 0 -6 10 -10
11 -10 3 0 -7 -6 -13 -14 -13 -8 0 -17 -6 -19 -12 -4 -10 -6 -9 -6 1 -1 10 -6
9 -19 -5 -9 -10 -24 -20 -32 -22 -8 -2 -20 -10 -26 -17 -6 -8 -14 -12 -17 -8
-4 3 -13 0 -22 -7 -8 -7 -15 -9 -15 -4 0 5 -6 2 -13 -6 -7 -9 -19 -15 -27 -15
-8 0 -21 -6 -28 -15 -12 -13 -13 -13 -7 0 4 10 2 10 -8 -2 -11 -14 -16 -15
-27 -5 -8 8 -11 8 -7 1 4 -7 0 -15 -9 -18 -10 -4 -13 -2 -9 7 4 6 0 4 -9 -7
-8 -10 -20 -15 -25 -11 -6 3 -14 -1 -17 -10 -4 -10 -14 -15 -25 -12 -11 3 -19
1 -19 -4 0 -5 -9 -9 -20 -9 -11 0 -20 -6 -20 -12 0 -8 -3 -9 -8 -3 -4 6 -14
10 -22 10 -8 0 -18 -4 -22 -10 -4 -5 -8 -936 -8 -2067 l0 -2058 5260 0 5260 0
0 23 c0 17 2 19 10 7 8 -12 10 -12 16 3 3 9 10 15 14 12 4 -3 11 2 14 11 3 8
10 12 16 9 5 -3 10 1 10 10 0 9 5 13 10 10 6 -3 13 1 16 10 4 9 13 14 21 11 9
-4 13 -1 10 6 -7 20 12 50 26 41 7 -4 7 0 -2 10 -9 12 -10 17 -2 17 7 0 9 5 6
10 -3 6 -1 10 5 10 6 0 8 5 5 10 -3 6 -1 10 5 10 6 0 10 8 8 18 -1 9 1 23 5
30 5 6 5 12 0 12 -4 0 -1 5 7 10 13 9 13 10 0 10 -11 0 -12 2 -3 8 7 4 13 24
15 45 1 20 7 37 13 37 6 0 7 3 0 8 -12 9 -16 42 -5 42 5 0 5 13 0 29 -6 21 -5
31 3 35 8 3 7 8 -3 15 -13 10 -13 11 0 11 13 0 13 1 0 10 -13 9 -13 12 2 24
13 10 15 15 6 24 -9 9 -9 12 0 12 6 0 9 7 5 16 -3 9 0 20 8 25 11 6 11 9 1 9
-9 0 -10 5 -2 19 7 14 7 22 -1 27 -6 3 -9 15 -6 25 3 11 0 19 -5 19 -6 0 -5 6
2 15 10 12 9 16 -6 22 -11 3 -22 11 -26 17 -4 6 -11 11 -15 11 -22 2 -53 17
-48 25 3 4 -2 11 -11 14 -14 5 -14 9 -3 23 10 12 10 14 2 9 -12 -6 -18 11 -14
37 0 4 -4 7 -10 7 -8 0 -8 5 1 15 12 14 7 20 -14 16 -5 -1 -4 5 4 13 10 13 10
16 0 16 -8 0 -10 3 -7 6 4 4 -1 14 -11 23 -9 9 -23 27 -30 40 -11 19 -11 22 0
15 7 -4 6 1 -3 12 -9 10 -20 29 -24 42 -3 12 -10 20 -14 18 -4 -3 -7 5 -6 17
1 12 -2 28 -8 35 -6 8 -6 12 0 12 6 0 9 12 7 26 -2 19 4 27 22 34 13 5 24 17
24 25 0 9 5 13 10 10 6 -3 10 -1 10 5 0 6 13 16 30 21 17 6 27 16 23 22 -4 6
0 8 10 4 11 -4 17 -1 17 8 0 9 6 12 18 8 9 -3 14 -3 10 2 -10 11 34 44 51 37
8 -3 12 -1 8 5 -4 6 0 16 8 23 8 7 12 16 9 21 -3 5 1 6 9 3 8 -3 17 2 21 11 3
9 10 13 16 10 5 -3 10 -1 10 5 0 7 6 10 13 8 15 -5 48 27 39 38 -4 4 1 4 11 1
13 -5 20 0 27 16 5 12 9 18 9 14 1 -5 14 0 30 9 17 10 28 21 25 26 -3 4 3 8
13 8 10 0 24 9 31 20 7 12 17 18 22 15 5 -3 12 6 16 21 5 19 9 22 15 12 7 -10
9 -8 9 6 0 11 3 16 7 13 3 -4 12 2 20 13 8 11 19 20 25 20 6 0 17 8 25 18 8 9
12 11 8 5 -4 -9 -1 -11 10 -7 9 4 14 13 11 21 -3 8 -2 11 3 8 5 -3 13 0 17 6
4 8 9 7 15 -2 7 -11 9 -10 9 3 0 9 9 20 21 23 13 4 18 12 15 21 -4 9 -2 12 5
8 6 -4 15 0 20 7 7 12 9 12 9 0 0 -11 3 -11 15 -1 8 7 15 8 15 3 0 -5 16 -8
35 -8 19 1 32 -2 30 -6 -3 -4 4 -9 15 -12 13 -3 18 -1 13 6 -4 7 1 6 11 -2 15
-13 19 -13 27 0 5 8 9 947 9 2299 0 2271 0 2286 -20 2287 -11 1 -22 -3 -25 -8
-4 -5 -11 -7 -16 -4 -5 4 -6 -2 -2 -12 3 -10 3 -15 -2 -11 -4 4 -14 0 -22 -10
-10 -11 -12 -12 -8 -2 4 10 2 9 -8 -2 -8 -10 -18 -14 -23 -10 -4 4 -2 -2 6
-13 8 -11 11 -17 6 -13 -5 4 -18 2 -30 -4 -11 -7 -24 -11 -29 -10 -4 1 -6 -1
-5 -5 3 -17 -15 -41 -27 -37 -7 3 -16 -4 -20 -15 -4 -12 -11 -18 -17 -15 -8 5
-9 1 -5 -10 4 -10 3 -15 -3 -11 -5 3 -19 -6 -32 -20 -12 -14 -28 -25 -35 -25
-7 0 -13 -7 -13 -15 0 -8 -6 -15 -13 -15 -7 0 -22 -7 -33 -16 -10 -8 -13 -12
-5 -8 9 5 12 3 7 -4 -4 -7 -14 -12 -22 -12 -8 0 -13 -4 -9 -9 3 -6 -1 -13 -9
-18 -8 -4 -15 -11 -15 -16 -1 -12 -31 -67 -37 -67 -3 0 -2 5 2 12 4 7 3 8 -5
4 -9 -6 -9 -11 -1 -21 8 -9 6 -14 -5 -19 -9 -3 -14 -10 -10 -15 3 -5 0 -13 -6
-17 -8 -4 -7 -9 2 -15 11 -7 10 -9 -4 -9 -10 0 -15 -5 -12 -10 4 -6 2 -17 -5
-25 -8 -9 -8 -15 0 -20 6 -3 8 -11 4 -16 -3 -5 -10 -7 -15 -4 -5 4 -5 -4 1
-19 7 -19 6 -26 -2 -26 -6 0 -8 -3 -5 -7 4 -3 1 -13 -6 -21 -9 -13 -9 -14 0
-8 9 5 11 2 7 -8 -3 -9 -10 -13 -15 -10 -5 3 -9 0 -9 -5 0 -20 -3 -26 -19 -39
-12 -11 -13 -12 -1 -7 8 4 3 -4 -12 -17 -16 -14 -28 -31 -28 -37 0 -7 -5 -9
-12 -5 -7 5 -9 2 -5 -9 4 -11 2 -14 -9 -10 -8 3 -23 -4 -33 -15 -14 -17 -20
-19 -31 -9 -10 9 -11 9 -6 0 4 -7 2 -21 -4 -30 -11 -17 -11 -17 -6 -1 4 15 0
15 -29 -4 -18 -13 -31 -26 -29 -29 2 -4 -8 -10 -21 -13 -14 -4 -23 -11 -20
-16 3 -5 -4 -11 -15 -15 -11 -4 -18 -10 -15 -15 3 -5 -4 -11 -15 -15 -11 -3
-20 -11 -20 -16 0 -5 -3 -8 -7 -8 -22 4 -37 -2 -27 -9 9 -5 8 -11 -2 -20 -8
-7 -14 -10 -14 -7 0 3 -6 0 -14 -7 -8 -7 -12 -16 -9 -20 2 -4 -4 -5 -14 -1
-10 3 -15 2 -11 -2 5 -5 -2 -13 -15 -20 -12 -6 -21 -17 -19 -23 1 -7 -4 -12
-12 -12 -8 0 -18 -5 -22 -12 -5 -7 -2 -9 7 -4 8 4 5 1 -5 -8 -10 -8 -23 -13
-27 -10 -4 2 -6 -4 -4 -15 3 -15 0 -18 -12 -14 -11 4 -14 2 -9 -5 4 -7 1 -12
-7 -12 -7 0 -23 -12 -36 -26 -12 -14 -29 -23 -37 -20 -7 3 -13 2 -13 -2 3 -19
-2 -25 -11 -12 -8 13 -10 13 -10 -1 0 -9 -9 -19 -20 -22 -11 -3 -20 -13 -20
-22 0 -9 -5 -13 -10 -10 -6 3 -13 -1 -16 -9 -3 -9 -10 -13 -15 -10 -5 3 -9 1
-9 -4 0 -5 -9 -12 -21 -15 -14 -4 -18 -10 -13 -18 5 -8 2 -11 -8 -6 -11 4 -18
-1 -21 -15 -3 -11 -10 -17 -15 -14 -6 3 -13 -1 -16 -10 -3 -8 -10 -12 -16 -9
-5 3 -10 -1 -10 -10 0 -11 -5 -15 -14 -12 -11 4 -13 1 -9 -10 4 -10 2 -14 -4
-10 -6 4 -14 0 -17 -9 -3 -8 -10 -13 -15 -10 -5 3 -11 -4 -14 -15 -4 -13 -11
-19 -19 -16 -8 2 -22 -1 -33 -9 -10 -8 -14 -14 -9 -14 6 0 16 6 24 13 8 6 6 2
-4 -10 -10 -12 -21 -22 -25 -21 -21 2 -30 -4 -25 -17 5 -11 2 -13 -12 -8 -13
5 -15 3 -9 -7 6 -9 4 -12 -6 -8 -15 6 -42 -16 -32 -25 3 -4 -6 -9 -21 -13 -14
-3 -26 -10 -26 -16 0 -5 -11 -19 -25 -32 -13 -13 -21 -27 -17 -31 4 -5 2 -5
-5 -1 -6 3 -23 -5 -37 -19 -15 -14 -31 -23 -36 -20 -6 4 -7 -1 -3 -12 3 -10 3
-15 -2 -11 -4 4 -16 -1 -26 -13 -12 -14 -18 -16 -22 -7 -3 8 -6 6 -6 -5 -1
-10 -6 -15 -11 -12 -6 3 -13 -1 -16 -9 -3 -9 -9 -14 -14 -11 -4 2 -12 -7 -18
-20 -7 -14 -19 -25 -27 -25 -10 0 -13 -5 -9 -12 5 -7 2 -9 -9 -5 -11 4 -14 2
-10 -9 3 -8 -1 -14 -11 -14 -10 0 -13 -6 -10 -15 5 -11 2 -14 -12 -9 -11 4
-16 4 -12 -1 4 -4 0 -14 -10 -22 -9 -8 -11 -11 -4 -8 11 6 11 3 1 -13 -7 -12
-17 -19 -21 -16 -4 3 -5 -3 -1 -12 4 -12 3 -15 -5 -10 -8 5 -10 1 -5 -10 4
-12 3 -15 -6 -10 -6 4 -10 4 -9 -1 4 -16 -14 -53 -23 -48 -5 4 -9 -2 -9 -12
-1 -24 -25 -55 -36 -45 -4 4 -2 -2 6 -12 8 -11 10 -17 4 -13 -7 4 -18 -1 -25
-10 -12 -14 -12 -16 1 -9 8 4 7 1 -3 -7 -10 -9 -19 -19 -20 -24 -1 -4 -5 -7
-10 -5 -4 1 -7 -1 -6 -5 2 -17 -14 -52 -21 -48 -5 3 -7 -6 -6 -19 2 -14 -2
-24 -8 -23 -6 1 -10 -6 -8 -17 2 -10 -1 -15 -7 -11 -7 3 -8 0 -5 -9 4 -10 1
-16 -7 -16 -12 0 -12 -2 0 -9 9 -6 10 -11 2 -15 -6 -4 -9 -12 -6 -17 4 -5 1
-9 -6 -9 -8 0 -8 -4 1 -15 12 -14 7 -20 -14 -16 -5 1 -4 -5 4 -13 11 -14 9
-16 -9 -16 -11 0 -21 5 -21 10 0 6 -7 10 -15 10 -9 0 -19 8 -22 18 -9 22 -27
40 -44 44 -19 4 -38 22 -32 31 2 4 1 7 -4 6 -14 -4 -63 24 -57 32 3 5 -3 6
-12 2 -12 -4 -15 -3 -10 5 5 8 2 10 -8 6 -9 -3 -16 -1 -16 6 0 6 -4 8 -10 5
-5 -3 -10 2 -11 12 0 16 -1 16 -9 -2 -5 -11 -9 -15 -9 -9 -1 6 -7 11 -13 12
-7 0 -22 3 -33 5 -11 2 -25 1 -31 -4 -6 -5 -25 -9 -42 -11 -18 -1 -32 -7 -32
-13 0 -5 -4 -4 -9 4 -7 11 -11 10 -20 -5 -6 -11 -11 -14 -11 -6 0 10 -4 10
-16 -2 -8 -9 -22 -16 -30 -16 -8 0 -12 -5 -9 -10 8 -13 -18 -8 -27 5 -4 6 -8
0 -8 -13 0 -12 -3 -21 -7 -21 -22 4 -33 -2 -27 -14 5 -7 2 -7 -10 2 -9 8 -16
10 -15 5 4 -22 -2 -33 -22 -39 -11 -4 -24 -18 -29 -31 -5 -13 -15 -24 -21 -24
-6 0 -9 -6 -6 -14 3 -8 -1 -17 -8 -20 -9 -3 -12 -12 -8 -22 4 -10 2 -15 -3
-11 -5 3 -10 -3 -10 -14 0 -10 5 -19 11 -19 5 0 3 -5 -5 -10 -8 -5 -10 -10 -5
-10 6 0 9 -17 7 -40 -3 -25 0 -40 7 -40 6 0 11 -8 11 -19 0 -10 7 -24 15 -31
9 -7 13 -20 10 -29 -3 -8 -3 -12 1 -8 4 4 14 1 22 -6 13 -10 14 -9 7 3 -7 13
-6 13 7 2 9 -7 32 -13 51 -14 20 -1 34 -4 32 -8 -3 -4 9 -13 25 -20 16 -7 27
-16 24 -21 -3 -5 1 -9 9 -9 8 0 18 -7 21 -16 5 -14 4 -15 -9 -4 -20 16 -19 6
1 -14 14 -15 14 -16 -3 -16 -14 0 -15 -2 -4 -9 9 -6 10 -11 2 -15 -6 -4 -11
-16 -11 -27 0 -11 -4 -18 -8 -15 -5 3 -15 -6 -22 -19 -7 -13 -17 -22 -22 -19
-8 5 -12 -11 -8 -31 1 -5 -2 -7 -6 -3 -4 4 -14 2 -22 -5 -13 -10 -15 -9 -8 3
4 8 1 6 -8 -5 -8 -11 -23 -29 -33 -39 -10 -11 -12 -16 -5 -12 6 4 12 2 12 -3
0 -6 -4 -11 -9 -11 -6 0 -8 -9 -6 -20 2 -11 0 -20 -6 -20 -5 0 -9 -5 -9 -11 0
-7 -10 -20 -22 -30 -11 -11 -16 -19 -9 -19 7 0 9 -5 6 -10 -4 -6 -11 -7 -17
-4 -7 5 -9 1 -5 -9 5 -14 2 -15 -19 -7 -18 7 -23 7 -18 -1 5 -8 -3 -10 -25 -7
-17 2 -31 0 -31 -5 0 -5 -6 -7 -14 -4 -7 3 -20 -3 -29 -14 -9 -10 -24 -19 -32
-19 -8 0 -15 -4 -15 -10 0 -5 -8 -10 -17 -10 -15 0 -16 -2 -3 -10 8 -5 10 -10
5 -10 -6 0 -16 5 -23 12 -9 9 -12 7 -12 -11 0 -21 -1 -21 -16 -6 -12 12 -19
13 -24 5 -4 -6 -10 -11 -14 -11 -19 3 -27 0 -22 -7 2 -4 -5 -9 -17 -9 -12 -1
-23 -7 -25 -13 -2 -5 -11 -10 -19 -10 -9 0 -13 -6 -10 -14 4 -9 -2 -12 -19
-10 -13 1 -22 -2 -18 -7 3 -5 -2 -12 -10 -15 -9 -3 -16 -12 -16 -20 0 -8 -4
-13 -9 -12 -5 2 -17 -6 -26 -17 -9 -11 -13 -13 -9 -5 4 8 -8 0 -27 -19 -18
-19 -33 -39 -31 -45 2 -5 -5 -3 -14 5 -16 12 -17 12 -11 -4 3 -9 2 -17 -4 -17
-6 0 -7 -5 -4 -10 3 -6 0 -10 -7 -10 -10 0 -10 -2 1 -9 11 -7 11 -9 0 -14 -10
-4 -10 -6 -1 -6 6 -1 12 -10 12 -21 0 -11 4 -20 9 -20 6 0 8 -9 6 -19 -3 -14
1 -18 11 -14 8 3 14 0 14 -6 0 -21 2 -26 13 -40 9 -12 9 -13 0 -7 -8 4 -13 1
-13 -9 0 -9 -4 -13 -10 -10 -5 3 -10 -1 -10 -10 0 -9 -4 -14 -8 -11 -5 3 -15
-4 -22 -14 -11 -15 -17 -17 -27 -8 -11 9 -13 8 -11 -3 2 -9 -5 -14 -19 -13
-13 1 -20 -3 -16 -9 4 -6 0 -8 -10 -4 -9 3 -18 0 -21 -9 -3 -8 -11 -14 -18
-14 -9 0 -8 3 2 10 10 7 11 10 2 10 -7 0 -15 -6 -18 -14 -3 -8 -12 -12 -20 -9
-8 3 -14 0 -14 -7 0 -9 -4 -9 -17 1 -10 7 -15 9 -11 5 12 -14 -34 -34 -54 -24
-11 5 -18 5 -18 0 0 -5 -15 -4 -34 2 -19 6 -32 15 -28 21 3 5 -2 4 -12 -4 -15
-12 -17 -12 -14 0 2 8 -4 13 -14 13 -10 -1 -15 2 -12 7 3 5 -2 9 -10 9 -8 0
-18 9 -21 20 -3 11 -13 20 -21 20 -8 0 -14 7 -14 17 0 9 -3 13 -6 10 -4 -3
-20 8 -35 24 -16 17 -29 26 -29 19 0 -9 -3 -10 -13 -1 -10 7 -17 7 -24 0 -7
-7 -13 -8 -17 0 -4 5 -13 8 -21 5 -7 -3 -23 -1 -34 6 -16 8 -21 8 -21 -2 0
-10 -2 -10 -9 1 -7 11 -10 11 -15 0 -4 -10 -8 -11 -11 -3 -3 7 -15 10 -25 7
-11 -3 -20 0 -20 6 0 6 -13 11 -28 11 -15 0 -33 5 -40 12 -7 7 -12 8 -12 2 0
-5 -9 -10 -20 -10 -11 0 -20 3 -20 7 0 4 -7 10 -16 13 -8 3 -13 2 -10 -3 4 -5
-3 -7 -15 -4 -16 5 -18 8 -7 15 9 7 7 8 -9 5 -13 -3 -24 1 -27 9 -3 8 -12 11
-21 8 -8 -4 -22 -1 -30 6 -8 6 -19 9 -25 5 -7 -4 -14 2 -17 13 -3 13 -12 19
-23 17 -11 -2 -23 6 -30 21 -8 13 -17 24 -22 24 -4 0 -8 9 -8 20 0 11 -7 20
-15 20 -9 0 -12 6 -8 17 4 11 3 14 -5 9 -11 -6 -17 5 -13 27 0 4 -4 7 -9 7 -6
0 -23 12 -38 26 -15 15 -20 23 -12 20 8 -4 6 0 -5 9 -11 9 -19 22 -17 28 2 7
1 9 -3 5 -10 -10 -36 18 -38 40 -1 13 -7 18 -19 14 -11 -2 -18 -1 -16 4 1 5
-6 21 -16 36 -10 15 -15 32 -12 37 4 5 1 13 -5 17 -8 5 -9 3 -4 -6 6 -9 4 -11
-4 -6 -9 6 -8 13 5 28 16 16 16 21 4 28 -11 7 -12 10 -2 10 7 0 11 4 8 8 -3 5
1 20 9 35 8 15 10 27 5 27 -5 0 -7 7 -4 15 4 8 11 12 17 8 6 -4 8 0 4 9 -3 9
0 21 6 27 8 8 7 11 -3 12 -8 0 -4 5 10 10 20 8 22 12 10 19 -11 7 -12 10 -2
10 7 0 10 5 7 10 -3 6 0 10 7 10 10 0 10 2 1 8 -10 7 -10 12 1 27 8 11 11 26
8 34 -3 8 -1 12 4 9 5 -4 9 9 8 28 -1 19 3 37 8 40 6 4 5 10 -3 15 -11 7 -10
9 3 9 12 0 15 5 11 17 -4 11 -3 14 5 9 7 -4 12 -2 12 3 0 6 -5 11 -11 11 -8 0
-9 4 0 13 6 8 8 17 4 20 -3 4 -1 7 5 7 6 0 9 7 6 15 -4 9 0 15 7 15 11 0 11 3
-1 10 -11 7 -11 10 -2 10 7 0 10 4 7 10 -3 5 -2 10 3 10 6 0 13 7 16 16 4 10
2 13 -7 8 -8 -6 -8 -3 1 9 8 9 11 21 7 27 -3 5 -1 10 5 10 6 0 8 5 5 10 -3 6
-1 10 5 10 6 0 9 4 5 9 -3 5 0 13 6 16 5 4 8 13 5 20 -2 7 -2 16 2 19 3 4 7
16 9 28 2 12 7 25 12 28 4 3 7 13 5 23 -1 9 2 17 6 17 5 0 7 9 5 20 -2 11 0
20 5 20 5 0 7 9 5 20 -2 11 0 20 6 20 5 0 7 11 5 25 -3 14 0 25 5 25 6 0 8 4
4 9 -3 5 -1 13 5 16 6 4 8 16 4 27 -5 16 -3 20 9 15 11 -4 14 -2 10 9 -3 8 0
21 7 29 6 8 9 19 5 25 -3 5 -2 10 2 10 5 0 9 8 10 18 3 40 9 57 21 65 9 6 9
13 1 29 -9 16 -8 19 2 13 9 -6 10 -3 6 9 -6 14 -3 17 8 12 11 -4 14 -2 8 7
-12 19 -12 37 -1 37 5 0 8 8 6 18 -2 9 3 22 12 29 13 11 13 12 0 13 -11 0 -12
2 -3 8 7 5 14 20 15 35 1 15 7 27 13 27 5 0 3 5 -5 10 -11 8 -12 12 -3 18 8 5
9 13 3 22 -5 8 -5 21 -1 29 5 9 7 24 6 34 -2 9 2 17 8 17 7 0 5 5 -3 10 -13 9
-13 10 0 10 13 0 13 1 0 10 -8 5 -10 10 -4 10 6 0 9 13 6 30 -2 16 -9 30 -14
30 -5 0 -6 5 -3 10 3 6 -1 10 -10 10 -9 0 -14 4 -10 9 3 5 -2 17 -11 25 -8 9
-13 16 -9 16 3 0 1 9 -5 20 -6 11 -16 17 -22 14 -7 -5 -9 -1 -5 9 3 10 2 17
-3 17 -6 0 -10 10 -10 22 0 12 -3 19 -6 15 -8 -8 -33 16 -27 26 2 4 -3 7 -11
7 -9 0 -16 5 -16 10 0 6 -9 10 -21 10 -11 0 -18 4 -15 8 2 4 -5 9 -17 9 -12 1
-23 7 -25 12 -2 5 -10 7 -19 4 -11 -4 -14 -2 -9 5 5 8 2 10 -8 6 -9 -3 -16 -1
-16 5 0 6 -9 11 -21 11 -13 0 -18 4 -13 13 5 7 1 6 -10 -3 -16 -12 -20 -12
-30 0 -16 21 -52 48 -42 33 4 -7 2 -13 -3 -13 -6 0 -11 6 -11 13 0 8 -4 7 -10
-3 -9 -13 -10 -13 -10 0 0 12 -2 13 -9 1 -7 -11 -9 -11 -14 0 -4 12 -7 11 -16
-1 -9 -13 -11 -13 -11 -1 0 11 -4 10 -16 -5 -8 -10 -13 -13 -9 -6 4 8 -3 12
-24 12 -18 0 -31 -5 -31 -12 0 -10 -3 -9 -9 1 -6 10 -10 10 -16 1 -4 -6 -13
-9 -21 -6 -8 3 -14 1 -14 -5 0 -6 -4 -7 -10 -4 -5 3 -10 2 -10 -4 0 -6 -7 -8
-15 -5 -9 4 -15 0 -15 -7 0 -11 -3 -11 -10 1 -7 12 -10 12 -10 1 0 -8 -6 -11
-16 -7 -8 3 -12 2 -9 -4 3 -5 -3 -9 -12 -9 -44 -1 -59 -4 -72 -15 -12 -9 -13
-8 -6 4 6 11 3 10 -12 -3 -11 -9 -23 -14 -27 -10 -9 10 -46 11 -46 2 0 -5 -7
-5 -17 -2 -12 5 -14 3 -8 -7 6 -9 4 -11 -6 -5 -19 12 -49 14 -42 2 3 -5 0 -7
-8 -5 -8 3 -19 -2 -26 -11 -8 -11 -12 -12 -13 -3 0 6 -5 12 -11 12 -5 0 -7 -4
-4 -10 3 -6 -1 -7 -9 -4 -9 3 -16 1 -16 -6 0 -6 -4 -8 -10 -5 -5 3 -10 0 -10
-7 0 -8 -3 -9 -8 -3 -9 14 -31 13 -40 -1 -4 -6 -15 -10 -25 -8 -9 1 -15 -2
-12 -6 3 -5 -4 -11 -14 -15 -11 -3 -23 -15 -26 -26 -4 -10 -11 -19 -16 -19 -6
0 -7 -4 -4 -10 7 -11 -19 -53 -27 -45 -3 3 -3 -6 -1 -20 3 -14 1 -25 -5 -25
-6 0 -9 -11 -8 -25 2 -15 -1 -22 -7 -18 -6 4 -8 0 -4 -10 4 -10 1 -17 -6 -17
-8 0 -6 -4 3 -10 8 -5 10 -10 4 -10 -10 0 -29 -47 -24 -59 1 -2 -4 -8 -12 -12
-9 -6 -10 -9 -1 -9 7 0 10 -7 7 -15 -4 -8 -10 -12 -15 -9 -5 3 -9 0 -9 -5 0
-6 5 -11 12 -11 6 0 3 -7 -8 -16 -10 -8 -12 -13 -4 -9 9 4 7 0 -4 -9 -10 -8
-19 -26 -20 -39 0 -14 -4 -23 -7 -21 -4 2 -9 -3 -12 -10 -3 -8 -1 -17 6 -20 9
-3 9 -7 1 -13 -6 -4 -10 -16 -8 -25 1 -10 -2 -18 -7 -18 -5 0 -8 -3 -8 -7 3
-20 -2 -34 -10 -28 -6 3 -6 -7 -1 -26 8 -25 7 -29 -5 -19 -11 9 -13 6 -11 -14
2 -15 0 -26 -4 -26 -5 0 -7 -8 -6 -17 2 -10 -2 -21 -8 -25 -8 -5 -7 -8 2 -8 9
0 10 -5 3 -18 -7 -13 -7 -22 1 -30 7 -7 4 -13 -11 -21 -12 -7 -21 -18 -21 -26
0 -8 -6 -15 -12 -15 -10 0 -9 -3 1 -9 11 -7 10 -10 -4 -18 -11 -7 -14 -13 -7
-17 8 -5 8 -15 2 -32 -6 -14 -8 -30 -4 -35 3 -5 1 -9 -5 -9 -5 0 -8 -8 -7 -17
2 -10 -4 -23 -13 -30 -14 -11 -14 -12 -1 -13 13 -1 13 -2 0 -13 -9 -7 -15 -19
-15 -27 0 -8 -4 -18 -10 -23 -7 -4 -7 -10 0 -15 12 -8 16 -44 5 -37 -4 3 -10
-2 -14 -10 -3 -8 0 -15 7 -15 8 0 6 -4 -3 -10 -12 -8 -12 -10 -1 -10 10 0 7
-6 -7 -18 -17 -15 -19 -21 -9 -32 9 -9 9 -11 0 -6 -7 4 -14 -3 -19 -16 -4 -13
-12 -26 -18 -30 -8 -5 -7 -8 2 -8 10 0 10 -5 2 -20 -8 -15 -8 -20 1 -20 8 0 7
-5 -2 -17 -12 -14 -12 -15 0 -9 9 6 8 1 -3 -17 -13 -20 -14 -26 -4 -30 10 -4
10 -6 -1 -6 -10 -1 -11 -4 -2 -15 9 -11 8 -15 -6 -20 -15 -6 -15 -8 -3 -16 8
-6 10 -10 4 -10 -6 0 -10 -11 -9 -25 2 -14 0 -25 -5 -25 -4 0 -6 -10 -2 -22 4
-16 2 -19 -9 -13 -12 8 -12 6 0 -8 7 -10 9 -17 3 -17 -12 0 -11 -18 2 -39 6
-10 5 -12 -2 -7 -8 5 -12 -1 -12 -16 0 -13 -6 -30 -12 -37 -8 -9 -9 -12 -1 -7
7 4 9 -1 6 -14 -3 -11 -9 -17 -14 -14 -5 3 -9 0 -9 -6 0 -7 -6 -8 -19 -1 -10
6 -22 7 -26 3 -5 -4 -5 -1 -1 6 4 6 2 12 -4 12 -6 0 -8 5 -5 10 3 6 1 10 -5
10 -6 0 -9 4 -6 9 3 5 0 8 -7 7 -12 -1 -61 31 -98 66 -12 12 -19 13 -23 5 -2
-7 -5 -4 -5 6 -1 10 -5 15 -11 12 -6 -3 -10 -1 -10 5 0 7 -7 10 -14 7 -10 -4
-13 -1 -9 9 3 8 2 14 -3 13 -14 -4 -64 23 -59 32 3 4 -1 13 -8 21 -20 20 -28
48 -14 48 8 0 6 4 -3 10 -8 5 -10 10 -4 10 7 0 9 11 6 25 -3 17 0 25 9 25 11
0 11 2 -1 10 -11 7 -11 10 -2 10 7 0 10 5 7 10 -3 6 0 10 7 10 10 0 10 2 -1 9
-11 7 -10 11 5 20 16 9 17 12 4 21 -8 5 -10 10 -4 10 7 0 15 7 18 16 3 8 2 12
-3 9 -13 -8 20 58 33 67 8 5 7 8 -1 8 -7 0 -10 7 -7 15 4 8 11 12 18 8 6 -4 5
1 -3 10 -9 12 -10 17 -2 17 7 0 9 5 6 10 -4 6 -1 17 5 25 6 8 9 19 6 24 -4 5
2 14 11 20 16 9 16 12 3 21 -13 9 -13 10 0 10 12 0 13 2 1 9 -11 7 -10 11 5
20 14 8 15 11 4 11 -9 0 -11 3 -5 8 6 4 11 15 12 25 1 34 3 38 12 33 5 -4 7 3
4 14 -3 11 -2 28 2 37 5 10 7 23 6 29 -1 7 6 15 15 18 13 5 14 9 4 20 -8 11
-8 20 -1 34 7 13 7 22 -1 30 -9 9 -9 12 1 12 9 0 12 11 9 34 -2 20 0 32 6 29
5 -3 7 5 4 21 -3 14 -1 26 5 26 6 0 8 3 4 6 -3 3 -2 17 3 30 7 17 6 24 -3 24
-8 0 -8 3 2 9 10 6 10 10 1 16 -8 5 -6 11 7 21 13 9 14 13 4 14 -11 0 -11 3
-1 15 10 12 10 15 -1 15 -9 0 -10 3 -4 8 14 10 17 32 4 32 -8 0 -8 5 1 15 10
12 10 15 -1 15 -9 0 -10 3 -4 8 12 8 18 29 17 55 0 9 4 17 9 17 6 0 7 5 4 10
-3 6 -1 10 5 10 6 0 8 5 5 10 -4 6 -1 17 5 25 8 9 8 15 2 15 -5 0 -8 9 -5 20
3 11 9 20 13 20 4 0 5 12 2 26 -3 18 -1 25 6 20 6 -4 8 2 5 14 -3 11 0 20 6
20 6 0 11 5 11 11 0 5 -6 7 -12 4 -7 -4 -4 1 6 9 11 9 16 16 10 16 -5 0 -3 4
4 9 7 4 14 18 15 29 1 12 5 22 10 22 4 0 5 5 2 10 -4 6 -1 17 5 25 6 8 8 20 4
26 -4 8 -3 9 4 5 7 -4 13 -2 13 3 1 6 2 16 3 21 0 6 6 14 12 18 6 4 10 15 8
25 -2 16 8 22 31 17 5 -1 7 1 3 5 -4 4 0 14 8 22 8 8 12 19 8 24 -3 5 -2 9 3
8 15 -4 43 13 37 22 -3 5 0 9 6 9 6 0 9 4 6 9 -3 4 3 19 14 31 11 12 18 26 15
30 -2 4 8 18 23 31 l27 24 -20 -25 c-18 -23 -17 -23 5 1 39 42 69 79 71 87 0
4 5 6 10 5 4 -2 6 3 3 10 -2 7 5 22 16 34 11 12 20 27 20 33 0 6 5 8 10 5 6
-3 10 -1 10 6 0 6 11 22 25 35 14 13 25 21 25 18 0 -3 7 2 16 10 8 9 13 20 10
25 -4 5 5 8 19 6 14 -1 23 0 21 3 -9 8 14 43 25 37 8 -5 14 15 10 37 0 4 6 5
14 2 14 -6 20 11 16 38 0 5 5 7 12 5 6 -1 11 4 10 11 -2 6 2 12 7 12 6 0 10 7
10 16 0 8 5 12 10 9 6 -3 10 -1 10 4 0 6 8 19 18 29 9 10 23 28 31 40 8 11 18
19 22 16 4 -2 6 7 5 21 -2 13 0 23 4 20 3 -2 13 6 21 17 8 12 25 33 39 47 14
13 19 21 11 16 -9 -5 -7 2 5 17 10 14 22 24 27 21 4 -2 10 9 13 26 4 17 10 31
15 31 4 0 6 9 4 20 -2 11 1 20 6 20 5 0 9 8 7 18 -2 10 2 16 10 14 10 -2 11 2
4 15 -8 13 -5 22 10 35 15 12 17 18 7 18 -11 0 -11 2 1 10 8 5 11 10 6 10 -5
0 -1 10 10 22 10 12 13 18 7 14 -18 -10 -16 10 3 28 10 10 11 16 3 16 -8 0 -9
4 -1 13 6 7 13 39 14 70 2 31 6 57 10 57 4 0 5 9 3 20 -2 11 0 20 5 20 5 0 7
7 3 16 -3 9 0 20 8 25 11 6 11 9 1 9 -9 0 -10 5 -3 19 6 10 7 21 4 25 -3 3 2
6 13 6 16 0 16 2 4 10 -12 8 -12 10 2 15 9 4 20 21 24 38 3 17 16 39 28 50 11
10 15 15 7 11 -9 -4 -12 -2 -9 7 3 8 11 13 18 11 7 -2 10 3 7 11 -3 8 0 20 6
26 8 8 7 11 -4 11 -11 1 -11 3 3 13 11 9 14 18 8 27 -5 8 -3 25 6 42 10 19 11
28 3 28 -8 0 -8 4 1 15 10 12 10 15 0 15 -9 0 -9 4 -3 13 6 6 9 22 8 35 -1 12
3 22 9 22 6 0 4 5 -4 10 -8 5 -10 10 -5 10 10 0 11 37 2 108 -3 19 0 32 7 32
6 0 4 5 -4 10 -8 5 -10 10 -4 10 7 0 9 15 4 45 -5 30 -3 45 4 45 6 0 4 5 -4
10 -13 9 -13 10 0 10 13 0 13 1 0 10 -8 5 -10 10 -4 10 7 0 9 15 4 45 -4 24
-3 42 1 40 4 -3 9 2 12 9 3 8 1 17 -6 20 -9 3 -8 7 2 14 11 8 11 10 0 15 -11
4 -11 6 -1 6 9 1 10 6 2 20 -7 14 -7 22 0 26 8 5 7 11 -1 21 -7 9 -8 14 -1 14
7 0 8 10 2 29 -5 19 -5 31 2 33 6 2 3 20 -9 45 -14 29 -16 40 -7 36 10 -4 11
2 4 26 -6 22 -5 31 3 31 7 0 6 4 -3 10 -8 5 -10 10 -3 10 15 0 4 40 -11 40 -6
0 -6 4 3 9 9 6 10 11 2 15 -8 5 -8 13 -1 27 8 14 7 19 -2 19 -9 0 -9 3 2 10
12 8 12 10 1 10 -11 0 -11 3 -1 15 10 12 10 15 -1 15 -11 0 -11 2 1 10 12 8
12 10 1 10 -10 0 -11 3 -2 14 9 11 9 15 -1 19 -10 4 -10 6 1 6 11 1 11 4 0 18
-11 13 -11 17 -1 21 10 3 10 7 1 18 -9 11 -8 14 2 14 11 0 11 2 -1 10 -8 5
-10 10 -5 10 6 0 12 17 13 38 2 20 9 42 17 48 11 8 12 13 2 24 -8 8 -8 11 -1
7 14 -8 48 39 39 53 -3 6 -1 10 5 10 7 0 9 7 6 16 -4 10 -2 13 6 8 7 -5 9 -2
5 9 -3 8 0 18 8 21 8 3 12 14 10 26 -2 11 1 20 6 20 6 0 8 4 4 9 -3 5 0 13 6
17 8 4 7 9 -2 15 -11 7 -11 9 -1 9 7 0 10 5 7 10 -3 6 -1 10 6 10 8 0 9 3 0
13 -6 8 -8 16 -6 19 8 8 17 49 19 85 0 17 4 29 7 27 4 -2 9 3 13 11 3 8 0 15
-7 15 -8 0 -9 2 -1 8 6 4 11 24 10 45 0 20 2 37 6 37 3 0 5 8 4 18 -2 9 2 20
8 25 8 5 6 10 -4 17 -10 6 -11 10 -3 10 7 0 10 7 7 15 -4 9 0 15 7 15 11 0 11
3 -1 10 -10 6 -11 10 -3 10 9 0 10 7 3 24 -6 17 -5 26 3 30 9 3 8 5 -1 5 -7 1
-10 5 -7 11 3 5 1 18 -4 29 -8 14 -8 21 2 24 9 4 8 8 -3 16 -10 7 -11 11 -3
11 7 0 10 7 7 15 -4 9 0 15 7 15 11 0 11 3 -1 10 -11 7 -11 10 -2 10 7 0 11 4
7 9 -3 5 -7 23 -9 40 -2 23 1 31 13 31 13 1 13 2 -3 11 -15 9 -16 13 -5 20 8
5 9 9 3 9 -7 0 -9 11 -6 26 3 17 1 25 -5 21 -14 -9 -11 25 2 36 6 4 5 10 -4
16 -11 7 -11 9 0 14 10 4 9 6 -3 6 -14 1 -15 6 -8 31 5 17 5 32 0 35 -5 3 -7
12 -3 20 3 9 -1 15 -8 15 -11 0 -11 3 1 10 12 8 12 10 1 10 -11 0 -11 3 -1 15
10 12 9 16 -5 21 -11 5 -13 9 -5 14 8 5 7 12 -5 24 -10 10 -12 16 -4 16 8 0 9
3 0 13 -6 8 -8 17 -5 20 4 4 -1 18 -10 32 -10 16 -12 25 -5 25 8 0 8 4 0 13
-8 10 -7 17 2 27 7 8 8 11 1 7 -7 -4 -14 2 -17 13 -3 11 0 20 6 20 7 0 3 7 -7
15 -11 8 -15 15 -10 15 17 0 7 60 -13 82 -10 12 -13 19 -7 15 6 -4 4 9 -5 27
-9 19 -20 31 -24 29 -5 -3 -4 4 2 15 8 16 7 21 -5 26 -13 5 -14 9 -4 21 10 12
10 15 -1 15 -11 0 -11 2 1 10 8 5 10 10 4 10 -7 0 -14 9 -17 20 -3 11 0 20 5
20 6 0 6 6 -2 15 -6 8 -9 19 -6 24 4 5 1 13 -5 17 -8 4 -7 9 2 15 8 5 9 9 3 9
-10 0 -15 31 -15 83 0 9 -6 17 -12 17 -7 0 -6 4 3 10 12 8 12 10 1 10 -8 0
-11 3 -8 7 4 3 2 12 -4 20 -9 10 -8 13 1 13 9 0 9 4 3 13 -6 6 -9 22 -8 34 1
12 -3 19 -8 16 -6 -3 -8 7 -5 26 2 17 1 31 -4 31 -4 0 -8 5 -8 11 0 5 6 7 13
3 6 -4 3 3 -8 16 -12 14 -14 20 -5 15 13 -7 13 -6 2 7 -10 13 -10 17 0 21 10
4 10 6 1 6 -7 1 -13 8 -13 16 0 8 -5 15 -11 15 -8 0 -8 5 1 15 9 10 9 15 1 15
-6 0 -11 7 -11 16 0 8 -5 12 -10 9 -6 -4 -9 -3 -8 2 5 20 -15 54 -28 49 -8 -3
-13 -2 -9 3 3 5 -2 16 -11 25 -8 9 -12 21 -8 27 4 8 3 9 -5 5 -6 -4 -14 0 -17
8 -3 9 -10 13 -15 10 -5 -3 -9 2 -9 11 0 9 -4 14 -9 11 -5 -3 -11 1 -15 9 -3
8 -13 15 -21 15 -9 0 -14 4 -11 8 3 5 -10 15 -29 22 -19 7 -32 17 -29 22 3 4
-4 8 -16 8 -12 0 -18 5 -15 10 3 6 -3 10 -14 10 -12 0 -21 5 -21 10 0 6 -7 10
-16 10 -8 0 -13 4 -10 8 3 5 -1 9 -9 10 -8 1 -22 3 -30 4 -8 1 -15 5 -15 10 0
5 -4 6 -10 3 -5 -3 -10 -1 -10 5 0 6 -4 9 -9 6 -5 -4 -12 0 -14 6 -4 10 -6 10
-6 1 -1 -9 -7 -8 -20 4 -11 9 -18 20 -15 25 3 5 2 7 -3 6 -16 -4 -53 14 -48
23 4 5 1 9 -5 9 -6 0 -8 5 -5 10 3 6 0 10 -7 10 -8 0 -20 9 -27 19 -8 11 -20
17 -28 14 -8 -3 -13 2 -13 13 0 16 -2 17 -10 4 -8 -12 -10 -12 -10 5 0 11 -9
26 -21 33 -17 11 -20 11 -14 0 3 -7 -2 -3 -13 9 -11 12 -22 20 -24 17 -3 -2
-11 2 -18 11 -7 8 -17 15 -23 15 -5 0 -16 8 -24 18 -10 11 -12 12 -8 2 4 -10
2 -9 -8 2 -8 10 -17 15 -20 11 -4 -3 -7 2 -7 13 0 15 -2 16 -9 5 -7 -11 -10
-9 -16 9 -6 18 -9 20 -16 9 -5 -8 -9 -9 -9 -3 0 7 -12 19 -26 29 -18 11 -24
13 -19 4 5 -8 -1 -6 -12 4 -14 12 -23 15 -28 7 -3 -5 -12 -7 -18 -3 -12 8 -30
13 -59 17 -17 2 -98 54 -109 69 -3 5 -9 8 -13 8 -20 -3 -26 0 -21 10 4 6 0 9
-11 7 -12 -2 -18 2 -16 11 3 12 0 12 -11 2 -10 -8 -16 -8 -19 -2 -1 6 -15 12
-30 13 -16 1 -28 6 -28 11 0 5 -6 7 -12 4 -7 -2 -22 3 -32 12 -12 10 -16 11
-11 2 5 -9 -1 -7 -19 4 -20 14 -26 14 -26 4 0 -11 -2 -12 -9 -1 -4 7 -12 12
-17 10 -5 -1 -19 3 -31 10 -16 9 -23 9 -23 2 0 -6 -7 -4 -16 5 -14 13 -19 14
-25 3 -6 -9 -9 -10 -9 -1 0 7 -7 10 -15 7 -8 -4 -22 -1 -30 6 -10 8 -15 9 -15
2 0 -6 -7 -9 -15 -6 -8 4 -12 11 -8 18 4 6 -1 5 -11 -3 -14 -12 -19 -12 -25
-2 -5 7 -11 12 -15 12 -28 -4 -46 1 -40 10 4 8 0 8 -15 0 -14 -8 -21 -8 -21
-1 0 5 -5 10 -11 10 -5 0 -7 -6 -4 -12 4 -7 -1 -4 -9 6 -9 11 -16 14 -16 8 0
-10 -5 -10 -20 -2 -15 8 -20 8 -20 -2 0 -9 -3 -9 -10 2 -7 11 -10 11 -10 2z"/>
<path d="M5190 11196 c0 -2 7 -7 16 -10 8 -3 12 -2 9 4 -6 10 -25 14 -25 6z"/>
</g>
</svg>
